<?xml version="1.0" encoding="UTF-8"?>
<svg id="Layer_2" data-name="Layer 2" xmlns="http://www.w3.org/2000/svg" viewBox="0 0 110.74 106">
  <defs>
    <style>
      .cls-1 {
        fill: #daff00;
      }
    </style>
  </defs>
  <g id="Light">
    <g>
      <path class="cls-1" d="M16.08,106H0C13.84,70.67,27.69,35.33,41.53,0h4.02c-9.82,35.33-19.65,70.67-29.47,106Z"/>
      <path class="cls-1" d="M46.44,106h-16.08C36.62,70.67,42.87,35.33,49.12,0h4.02c-2.23,35.33-4.47,70.67-6.7,106Z"/>
      <path class="cls-1" d="M78.59,106h-16.08c-1.79-35.33-3.57-70.67-5.36-106h4.02c5.81,35.33,11.61,70.67,17.42,106Z"/>
      <path class="cls-1" d="M110.74,106h-16.08c-9.82-35.33-19.65-70.67-29.47-106h4.02c13.84,35.33,27.69,70.67,41.53,106Z"/>
    </g>
  </g>
</svg>